<svg xmlns="http://www.w3.org/2000/svg" width="152.311" height="71.241" viewBox="0 0 152.311 71.241">
  <g id="Group_1" data-name="Group 1" transform="translate(-290 -40.772)">
    <path id="Path_1" data-name="Path 1" d="M368.926,563.351h-2.681a5.173,5.173,0,0,1-5.173-5.173V523.654a4.181,4.181,0,0,1,4.181-4.181h4.664a4.181,4.181,0,0,1,4.181,4.181v34.524a5.173,5.173,0,0,1-5.173,5.173" transform="translate(-26.049 -452.761)" fill="#e50e7a"/>
    <path id="Path_2" data-name="Path 2" d="M443.162,563.3h-2.681a5.173,5.173,0,0,1-5.173-5.173V523.6a4.181,4.181,0,0,1,4.181-4.181h4.664a4.181,4.181,0,0,1,4.181,4.181v34.524a5.173,5.173,0,0,1-5.173,5.173" transform="translate(-68.581 -452.729)" fill="#fbed18"/>
    <path id="Path_3" data-name="Path 3" d="M517.757,563.351h-2.681a5.173,5.173,0,0,1-5.173-5.173V523.654a4.181,4.181,0,0,1,4.181-4.181h4.664a4.181,4.181,0,0,1,4.181,4.181v34.524a5.173,5.173,0,0,1-5.173,5.173" transform="translate(-111.319 -452.761)" fill="#3f3f3e"/>
    <path id="Path_4" data-name="Path 4" d="M293.643,518.988H257.072a1.423,1.423,0,1,1,0-2.846h36.572a1.423,1.423,0,0,1,0,2.846" transform="translate(34.351 -450.852)"/>
    <path id="Path_5" data-name="Path 5" d="M553.792,596.038H538.5a1.423,1.423,0,0,1,0-2.846h15.3a1.423,1.423,0,0,1,0,2.846" transform="translate(-126.886 -494.997)"/>
    <rect id="Rectangle_1" data-name="Rectangle 1" width="0.796" height="40.631" transform="translate(400.006 67.726)" fill="#fff"/>
    <rect id="Rectangle_2" data-name="Rectangle 2" width="0.796" height="41.126" transform="translate(368.149 67.207)" fill="#fff"/>
    <rect id="Rectangle_3" data-name="Rectangle 3" width="0.796" height="40.592" transform="translate(336.446 67.764)" fill="#fff"/>
    <path id="Path_6" data-name="Path 6" d="M516.4,562.865h-3.782a6.052,6.052,0,0,1-6.045-6.046V517.565a1.423,1.423,0,0,1,1.423-1.423H521.02a1.423,1.423,0,0,1,1.423,1.423V556.82a6.052,6.052,0,0,1-6.045,6.046m-6.981-43.877V556.82a3.2,3.2,0,0,0,3.2,3.2H516.4a3.2,3.2,0,0,0,3.2-3.2V518.988Z" transform="translate(-109.41 -450.852)"/>
    <path id="Path_7" data-name="Path 7" d="M441.8,562.81h-3.782a6.052,6.052,0,0,1-6.045-6.046V517.51a1.423,1.423,0,0,1,1.423-1.423h13.026a1.423,1.423,0,0,1,1.423,1.423v39.255a6.052,6.052,0,0,1-6.045,6.046m-6.981-43.877v37.832a3.2,3.2,0,0,0,3.2,3.2H441.8a3.2,3.2,0,0,0,3.2-3.2V518.933Z" transform="translate(-66.672 -450.821)"/>
    <path id="Path_8" data-name="Path 8" d="M367.568,562.865h-3.782a6.052,6.052,0,0,1-6.045-6.046V517.565a1.423,1.423,0,0,1,1.423-1.423H372.19a1.423,1.423,0,0,1,1.423,1.423V556.82a6.052,6.052,0,0,1-6.045,6.046m-6.981-43.877V556.82a3.2,3.2,0,0,0,3.2,3.2h3.782a3.2,3.2,0,0,0,3.2-3.2V518.988Z" transform="translate(-24.141 -450.852)"/>
    <path id="Path_9" data-name="Path 9" d="M294.4,563.351h-2.681a5.173,5.173,0,0,1-5.173-5.173V523.654a4.181,4.181,0,0,1,4.181-4.181h4.664a4.181,4.181,0,0,1,4.181,4.181v34.524a5.173,5.173,0,0,1-5.173,5.173" transform="translate(16.649 -452.761)" fill="#1a9ac4"/>
    <rect id="Rectangle_4" data-name="Rectangle 4" width="0.796" height="40.413" transform="translate(304.619 67.943)" fill="#fff"/>
    <path id="Path_10" data-name="Path 10" d="M293.042,562.865H289.26a6.052,6.052,0,0,1-6.045-6.046V517.565a1.423,1.423,0,0,1,1.423-1.423h13.026a1.423,1.423,0,0,1,1.423,1.423V556.82a6.052,6.052,0,0,1-6.045,6.046m-6.981-43.877V556.82a3.2,3.2,0,0,0,3.2,3.2h3.782a3.2,3.2,0,0,0,3.2-3.2V518.988Z" transform="translate(18.558 -450.852)"/>
    <path id="Path_11" data-name="Path 11" d="M292.876,606.887h-2.995v-.854h2.995a.427.427,0,1,1,0,.854" transform="translate(14.738 -502.354)"/>
    <path id="Path_12" data-name="Path 12" d="M367.4,606.887H364.4v-.854H367.4a.427.427,0,1,1,0,.854" transform="translate(-27.958 -502.354)"/>
    <path id="Path_13" data-name="Path 13" d="M441.633,606.833h-2.995v-.854h2.995a.427.427,0,1,1,0,.854" transform="translate(-70.489 -502.323)"/>
    <path id="Path_14" data-name="Path 14" d="M516.229,606.887h-2.995v-.854h2.995a.427.427,0,1,1,0,.854" transform="translate(-113.228 -502.354)"/>
    <path id="Path_15" data-name="Path 15" d="M409.023,560.63a1.424,1.424,0,0,1-1.292-.823l-19.358-41.644a1.423,1.423,0,0,1,2.581-1.2l19.358,41.644a1.423,1.423,0,0,1-1.29,2.023" transform="translate(-41.615 -450.851)"/>
    <path id="Path_16" data-name="Path 16" d="M558.881,562.84a1.423,1.423,0,0,1-1.291-.823L537.2,518.163a1.423,1.423,0,0,1,2.581-1.2l20.385,43.854a1.424,1.424,0,0,1-1.29,2.023" transform="translate(-126.885 -450.851)"/>
    <path id="Path_17" data-name="Path 17" d="M490.813,497.611l-.689,1.565.645.605-.282.64-3.153-2.987.313-.711,4.333.31-.284.645Zm-2.581-.206,1.467,1.379.538-1.221Z" transform="translate(-98.389 -439.727)"/>
    <path id="Path_18" data-name="Path 18" d="M496.019,484.34a1.96,1.96,0,0,1,.372,2.946l-.782,1.081-3.309-2.395.782-1.081a1.977,1.977,0,0,1,2.938-.551m-.072,2.626a1.344,1.344,0,0,0-.331-2.069,1.363,1.363,0,0,0-2.092.315l-.389.538,2.424,1.754Z" transform="translate(-101.233 -432.384)"/>
    <path id="Path_19" data-name="Path 19" d="M502.73,472.851l.524-.471,1.593,4.062-.577.519-3.878-2.005.533-.48,3.174,1.715Z" transform="translate(-105.871 -425.779)"/>
    <path id="Path_20" data-name="Path 20" d="M513.66,467.1l-1.359.82.62,1.027,1.207-.729.283.468-1.208.728.646,1.072,1.359-.82.282.468-1.932,1.166-2.113-3.5,1.932-1.166Z" transform="translate(-112.203 -422.485)"/>
    <path id="Path_21" data-name="Path 21" d="M522.542,462.7a1.257,1.257,0,0,1,1.783.637,1.163,1.163,0,0,1-.476,1.428l1.542,1.23-.749.281-1.455-1.2-.479.18.574,1.53-.628.235-1.435-3.825Zm.192.512-.694.26.481,1.282.694-.26a.66.66,0,0,0,.466-.916.645.645,0,0,0-.948-.366" transform="translate(-117.804 -420.157)"/>
    <path id="Path_22" data-name="Path 22" d="M532.769,459.608l2.808-.486.093.539-1.071.186.6,3.485-.66.114-.6-3.485-1.077.187Z" transform="translate(-124.42 -418.184)"/>
    <rect id="Rectangle_5" data-name="Rectangle 5" width="0.67" height="4.083" transform="translate(413.373 40.792) rotate(-1.718)"/>
    <path id="Path_23" data-name="Path 23" d="M552.076,463.18c-.811-.1-1.383-.615-1.3-1.332l.712.085a.655.655,0,0,0,.652.687c.467.056.76-.164.8-.508.117-.981-2.113-.6-1.935-2.095.085-.712.7-1.089,1.532-.99a1.246,1.246,0,0,1,1.252,1.268l-.736-.088a.638.638,0,0,0-.618-.618c-.384-.058-.7.094-.751.484-.109.916,2.107.6,1.931,2.083a1.27,1.27,0,0,1-1.543,1.024" transform="translate(-134.734 -418.12)"/>
    <rect id="Rectangle_6" data-name="Rectangle 6" width="4.082" height="0.669" transform="translate(420.463 45.606) rotate(-74.606)"/>
    <path id="Path_24" data-name="Path 24" d="M571.51,464.4l-1.71,3.713-.608-.28-.555-3.611L567.363,467l-.608-.28,1.71-3.713.609.28.557,3.606,1.272-2.763Z" transform="translate(-143.891 -420.407)"/>
    <path id="Path_25" data-name="Path 25" d="M583.071,473.6l-.639-.489a1.162,1.162,0,0,0-.492-1.155,1.48,1.48,0,0,0-1.8,2.346,1.237,1.237,0,0,0,1.725-.106l-1.217-.934.325-.424,1.786,1.369-.318.415a2.013,2.013,0,0,1-2.67.161,2.086,2.086,0,0,1,2.538-3.312,1.947,1.947,0,0,1,.759,2.13" transform="translate(-150.871 -425.003)"/>
    <path id="Path_26" data-name="Path 26" d="M592.395,488.282a1.269,1.269,0,0,1,.145-1.853l.406.591a.655.655,0,0,0-.086.943c.266.387.624.462.91.266.814-.559-.943-1.983.3-2.835a1.222,1.222,0,0,1,1.754.5,1.246,1.246,0,0,1-.125,1.777l-.42-.61a.638.638,0,0,0,.056-.872.579.579,0,0,0-.859-.243c-.761.522.939,1.977-.291,2.823a1.268,1.268,0,0,1-1.786-.483" transform="translate(-158.394 -433.118)"/>
    <path id="Path_27" data-name="Path 27" d="M600.866,497.036l-.649-1.448-1.093.491.577,1.286-.5.223-.577-1.286-1.141.512.649,1.448-.5.224-.922-2.059,3.731-1.673.923,2.059Z" transform="translate(-161.054 -438.598)"/>
    <path id="Path_28" data-name="Path 28" d="M604.551,506.471a1.256,1.256,0,0,1-.848,1.693,1.162,1.162,0,0,1-1.36-.644l-1.407,1.382-.188-.778,1.367-1.3-.12-.5-1.588.385-.158-.652,3.97-.961Zm-.531.129-.174-.72-1.331.322.174.72a.66.66,0,0,0,.853.574c.4-.1.6-.388.478-.9" transform="translate(-163.081 -444.526)"/>
    <path id="Path_29" data-name="Path 29" d="M606.674,519.976l.026.7-4.14-1.38-.029-.775,4.025-1.692.026.717-3.35,1.337Z" transform="translate(-164.39 -451.249)"/>
    <rect id="Rectangle_7" data-name="Rectangle 7" width="0.67" height="4.085" transform="translate(437.954 71.763) rotate(-83.005)"/>
    <path id="Path_30" data-name="Path 30" d="M604.028,538.867a1.946,1.946,0,0,1-1.722,1.464l.232-.771a1.14,1.14,0,0,0,.928-.862,1.5,1.5,0,0,0-2.874-.865,1.141,1.141,0,0,0,.3,1.231l-.232.77a1.941,1.941,0,0,1-.623-2.169,2.085,2.085,0,0,1,3.994,1.2" transform="translate(-162.9 -462.328)"/>
    <path id="Path_31" data-name="Path 31" d="M597.9,551.217l.749-1.4-1.057-.567-.666,1.244-.482-.258.666-1.243L596,548.4l-.749,1.4-.482-.258,1.066-1.989,3.605,1.931-1.065,1.989Z" transform="translate(-159.945 -468.85)"/>
    <path id="Path_32" data-name="Path 32" d="M590.02,557.216a1.268,1.268,0,0,1,1.814-.407l-.446.562a.655.655,0,0,0-.927.2.631.631,0,0,0,.013.948c.773.614,1.619-1.484,2.8-.549a1.222,1.222,0,0,1,.038,1.824,1.244,1.244,0,0,1-1.735.4l.46-.581a.638.638,0,0,0,.851-.2.58.58,0,0,0-.019-.893c-.723-.574-1.616,1.48-2.784.552a1.27,1.27,0,0,1-.062-1.85" transform="translate(-157.012 -474.016)"/>
  </g>
</svg>
