<svg xmlns="http://www.w3.org/2000/svg" width="87.762" height="41.05"><g data-name="Group 10705" fill="#fff"><path data-name="Path 196" d="M21.893 15.767H.82a.82.82 0 110-1.639h21.073a.82.82 0 110 1.639"/><path data-name="Path 197" d="M78.886 34.728h-8.814a.82.82 0 010-1.64h8.814a.82.82 0 110 1.64"/><path data-name="Path 198" d="M67.409 41.055H65.23a3.488 3.488 0 01-3.483-3.483v-22.62a.82.82 0 01.82-.819h7.506a.819.819 0 01.82.819v22.62a3.488 3.488 0 01-3.484 3.483m-4.022-25.283v21.8a1.845 1.845 0 001.843 1.843h2.179a1.845 1.845 0 001.843-1.843v-21.8z"/><path data-name="Path 199" d="M49.055 41.036h-2.179a3.487 3.487 0 01-3.483-3.483V14.934a.82.82 0 01.82-.82h7.506a.82.82 0 01.819.82v22.619a3.487 3.487 0 01-3.483 3.483m-4.022-25.282v21.8a1.845 1.845 0 001.843 1.843h2.179a1.846 1.846 0 001.844-1.843v-21.8z"/><path data-name="Path 200" d="M30.785 41.055h-2.179a3.488 3.488 0 01-3.483-3.483v-22.62a.82.82 0 01.82-.819h7.506a.82.82 0 01.82.819v22.62a3.487 3.487 0 01-3.483 3.483m-4.022-25.283v21.8a1.845 1.845 0 001.843 1.843h2.179a1.845 1.845 0 001.843-1.843v-21.8z"/><path data-name="Path 201" d="M12.445 41.055h-2.178a3.487 3.487 0 01-3.483-3.483v-22.62a.819.819 0 01.82-.819h7.506a.819.819 0 01.819.819v22.62a3.487 3.487 0 01-3.484 3.483M8.423 15.772v21.8a1.845 1.845 0 001.843 1.843h2.178a1.845 1.845 0 001.844-1.843v-21.8z"/><path data-name="Path 202" d="M10.15 36.74H8.425v-.492h1.725a.246.246 0 110 .492"/><path data-name="Path 203" d="M28.487 36.74h-1.725v-.492h1.725a.246.246 0 110 .492"/><path data-name="Path 204" d="M46.756 36.726H45.03v-.491h1.726a.246.246 0 010 .491"/><path data-name="Path 205" d="M65.111 36.74h-1.725v-.492h1.725a.246.246 0 110 .492"/><path data-name="Path 206" d="M44.602 39.763a.819.819 0 01-.744-.474l-11.154-24a.82.82 0 011.487-.691l11.154 23.995a.82.82 0 01-.743 1.166"/><path data-name="Path 207" d="M81.819 41.036a.819.819 0 01-.744-.473L69.329 15.294a.82.82 0 111.487-.692L82.559 39.87a.819.819 0 01-.743 1.166"/><path data-name="Path 208" d="M59.017 9.859l-.4.9.372.349-.162.369-1.817-1.722.181-.409 2.5.178-.164.372zM57.53 9.74l.845.795.31-.7z"/><path data-name="Path 209" d="M60.377 6.444a1.13 1.13 0 01.214 1.7l-.451.623-1.907-1.381.451-.623a1.14 1.14 0 011.693-.318m-.042 1.513a.775.775 0 00-.191-1.192.786.786 0 00-1.206.181l-.224.31 1.4 1.011z"/><path data-name="Path 210" d="M61.573 3.63l.3-.272.918 2.34-.333.3-2.235-1.156.307-.276 1.828.988z"/><path data-name="Path 211" d="M64.222 2.213l-.783.472.357.592.7-.42.162.27-.7.419.373.618.783-.473.163.27-1.113.672-1.218-2.018 1.114-.672z"/><path data-name="Path 212" d="M66.112 1.02a.725.725 0 011.028.367.671.671 0 01-.274.823l.888.709-.432.162-.838-.692-.276.1.331.882-.361.136-.827-2.205zm.111.3l-.4.15.277.739.4-.15a.381.381 0 00.269-.528.372.372 0 00-.546-.211"/><path data-name="Path 213" d="M68.193.377l1.618-.28.054.311-.617.107.348 2.008-.38.066-.348-2.008-.621.107z"/><path data-name="Rectangle 761" d="M71.088.012L71.474 0l.07 2.353-.385.012z"/><path data-name="Path 214" d="M73.375 2.471c-.467-.056-.8-.354-.747-.768l.41.05a.378.378 0 00.376.4c.269.032.437-.095.461-.293.067-.566-1.218-.346-1.115-1.207.048-.41.405-.627.883-.57a.717.717 0 01.721.73l-.423-.051a.369.369 0 00-.357-.356c-.221-.033-.406.054-.432.279-.063.528 1.214.346 1.112 1.2a.731.731 0 01-.889.59"/><path data-name="Rectangle 762" d="M75.175 2.786l.62-2.27.372.102-.62 2.27z"/><path data-name="Path 215" d="M79.297 1.859l-.985 2.14-.35-.161-.32-2.082-.734 1.6-.351-.162.985-2.14.351.162.321 2.078.733-1.592z"/><path data-name="Path 216" d="M81.937 4.507l-.369-.282a.668.668 0 00-.283-.665.853.853 0 00-1.036 1.352.713.713 0 00.994-.061l-.7-.538.187-.245 1.03.79-.184.239a1.161 1.161 0 01-1.538.093 1.203 1.203 0 011.463-1.909 1.124 1.124 0 01.438 1.227"/><path data-name="Path 217" d="M82.974 8.293a.731.731 0 01.083-1.068l.234.34a.377.377 0 00-.05.543c.153.223.36.267.525.153.469-.322-.544-1.142.17-1.633a.7.7 0 011.011.287.718.718 0 01-.072 1.024l-.242-.352a.367.367 0 00.032-.5.334.334 0 00-.494-.14c-.438.3.541 1.14-.168 1.627a.731.731 0 01-1.029-.278"/><path data-name="Path 218" d="M86.322 10.179l-.374-.834-.63.282.332.742-.287.129-.333-.741-.658.3.374.834-.287.129-.532-1.186 2.15-.964.532 1.186z"/><path data-name="Path 219" d="M87.277 12.2a.724.724 0 01-.489.976.671.671 0 01-.783-.372l-.811.8-.109-.448.788-.748-.069-.286-.915.222-.091-.376 2.288-.554zm-.306.074l-.1-.415-.767.186.1.415a.38.38 0 00.491.331c.23-.056.347-.223.276-.517"/><path data-name="Path 220" d="M87.747 16.109l.015.406-2.385-.8-.017-.447 2.32-.975.015.414-1.93.77z"/><path data-name="Rectangle 763" d="M85.252 17.856l.047-.383 2.336.288-.048.383z"/><path data-name="Path 221" d="M87.081 20.61a1.12 1.12 0 01-.992.843l.133-.444a.656.656 0 00.535-.5.867.867 0 00-1.656-.5.657.657 0 00.172.709l-.133.443a1.116 1.116 0 01-.359-1.249 1.201 1.201 0 112.3.693"/><path data-name="Path 222" d="M85.251 23.968l.432-.806-.609-.326-.384.716-.277-.148.383-.716-.636-.34-.432.806-.278-.148.614-1.146 2.078 1.113-.614 1.146z"/><path data-name="Path 223" d="M82.406 24.448a.731.731 0 011.045-.234l-.257.324a.376.376 0 00-.533.112.363.363 0 00.007.546c.445.353.933-.855 1.612-.317a.7.7 0 01.022 1.051.717.717 0 01-1 .231l.265-.334a.367.367 0 00.49-.117.334.334 0 00-.011-.515c-.416-.33-.931.853-1.6.318a.731.731 0 01-.036-1.066"/></g></svg>