<svg xmlns="http://www.w3.org/2000/svg" width="87.762" height="41.05" viewBox="0 0 87.762 41.05">
  <g id="Group_10705" data-name="Group 10705" transform="translate(-157.613 -138.632)">
    <path id="Path_196" data-name="Path 196" d="M1266.589,279.912h-21.073a.82.82,0,1,1,0-1.639h21.073a.82.82,0,1,1,0,1.639" transform="translate(-1087.083 -125.513)" fill="#fff"/>
    <path id="Path_197" data-name="Path 197" d="M1361.327,309.207h-8.814a.82.82,0,0,1,0-1.64h8.814a.82.82,0,1,1,0,1.64" transform="translate(-1124.828 -135.847)" fill="#fff"/>
    <path id="Path_198" data-name="Path 198" d="M1345.759,305.2h-2.179a3.488,3.488,0,0,1-3.483-3.483v-22.62a.82.82,0,0,1,.82-.819h7.506a.819.819,0,0,1,.82.819v22.62a3.488,3.488,0,0,1-3.484,3.483m-4.022-25.283v21.8a1.845,1.845,0,0,0,1.843,1.843h2.179a1.845,1.845,0,0,0,1.843-1.843v-21.8Z" transform="translate(-1120.737 -125.513)" fill="#fff"/>
    <path id="Path_199" data-name="Path 199" d="M1317.4,305.173h-2.179a3.487,3.487,0,0,1-3.483-3.483V279.071a.82.82,0,0,1,.82-.82h7.506a.82.82,0,0,1,.819.82V301.69a3.487,3.487,0,0,1-3.483,3.483m-4.022-25.282v21.8a1.845,1.845,0,0,0,1.843,1.843h2.179a1.846,1.846,0,0,0,1.844-1.843v-21.8Z" transform="translate(-1110.732 -125.505)" fill="#fff"/>
    <path id="Path_200" data-name="Path 200" d="M1289.174,305.2h-2.179a3.488,3.488,0,0,1-3.483-3.483v-22.62a.82.82,0,0,1,.82-.819h7.506a.82.82,0,0,1,.82.819v22.62a3.487,3.487,0,0,1-3.483,3.483m-4.022-25.283v21.8a1.845,1.845,0,0,0,1.843,1.843h2.179a1.845,1.845,0,0,0,1.843-1.843v-21.8Z" transform="translate(-1100.776 -125.513)" fill="#fff"/>
    <path id="Path_201" data-name="Path 201" d="M1260.838,305.2h-2.178a3.487,3.487,0,0,1-3.483-3.483v-22.62a.819.819,0,0,1,.82-.819h7.506a.819.819,0,0,1,.819.819v22.62a3.487,3.487,0,0,1-3.484,3.483m-4.022-25.283v21.8a1.845,1.845,0,0,0,1.843,1.843h2.178a1.845,1.845,0,0,0,1.844-1.843v-21.8Z" transform="translate(-1090.78 -125.513)" fill="#fff"/>
    <path id="Path_202" data-name="Path 202" d="M1259.437,312.941h-1.725v-.492h1.725a.246.246,0,1,1,0,.492" transform="translate(-1091.674 -137.569)" fill="#fff"/>
    <path id="Path_203" data-name="Path 203" d="M1287.769,312.941h-1.725v-.492h1.725a.246.246,0,1,1,0,.492" transform="translate(-1101.669 -137.569)" fill="#fff"/>
    <path id="Path_204" data-name="Path 204" d="M1315.995,312.92h-1.726v-.491h1.726a.246.246,0,0,1,0,.491" transform="translate(-1111.626 -137.562)" fill="#fff"/>
    <path id="Path_205" data-name="Path 205" d="M1344.355,312.941h-1.725v-.492h1.725a.246.246,0,1,1,0,.492" transform="translate(-1121.631 -137.569)" fill="#fff"/>
    <path id="Path_206" data-name="Path 206" d="M1307.082,303.908a.819.819,0,0,1-.744-.474l-11.154-24a.82.82,0,0,1,1.487-.691l11.154,23.995a.82.82,0,0,1-.743,1.166" transform="translate(-1104.867 -125.513)" fill="#fff"/>
    <path id="Path_207" data-name="Path 207" d="M1364.26,305.181a.819.819,0,0,1-.744-.473l-11.746-25.269a.82.82,0,1,1,1.487-.692L1365,304.015a.819.819,0,0,1-.743,1.166" transform="translate(-1124.828 -125.513)" fill="#fff"/>
    <path id="Path_208" data-name="Path 208" d="M1334.787,271.4l-.4.9.372.349-.162.369-1.817-1.722.181-.409,2.5.178-.164.372Zm-1.487-.119.845.795.31-.7Z" transform="translate(-1118.157 -122.909)" fill="#fff"/>
    <path id="Path_209" data-name="Path 209" d="M1336.813,266.265a1.13,1.13,0,0,1,.214,1.7l-.451.623-1.907-1.381.451-.623a1.14,1.14,0,0,1,1.693-.318m-.042,1.513a.775.775,0,0,0-.191-1.192.786.786,0,0,0-1.206.181l-.224.31,1.4,1.011Z" transform="translate(-1118.823 -121.189)" fill="#fff"/>
    <path id="Path_210" data-name="Path 210" d="M1339.094,261.906l.3-.272.918,2.34-.333.3-2.235-1.156.307-.276,1.828.988Z" transform="translate(-1119.908 -119.644)" fill="#fff"/>
    <path id="Path_211" data-name="Path 211" d="M1343.226,259.717l-.783.472.357.592.7-.42.162.27-.7.419.373.618.783-.473.163.27-1.113.672-1.218-2.018,1.114-.672Z" transform="translate(-1121.391 -118.872)" fill="#fff"/>
    <path id="Path_212" data-name="Path 212" d="M1346.427,257.98a.725.725,0,0,1,1.028.367.671.671,0,0,1-.274.823l.888.709-.432.162-.838-.692-.276.1.331.882-.361.136-.827-2.205Zm.111.3-.4.15.277.739.4-.15a.381.381,0,0,0,.269-.528.372.372,0,0,0-.546-.211" transform="translate(-1122.702 -118.328)" fill="#fff"/>
    <path id="Path_213" data-name="Path 213" d="M1350.057,256.874l1.618-.28.054.311-.617.107.348,2.008-.38.066-.348-2.008-.621.107Z" transform="translate(-1124.251 -117.865)" fill="#fff"/>
    <rect id="Rectangle_761" data-name="Rectangle 761" width="0.386" height="2.353" transform="matrix(1, -0.03, 0.03, 1, 228.701, 138.644)" fill="#fff"/>
    <path id="Path_214" data-name="Path 214" d="M1357.654,258.954c-.467-.056-.8-.354-.747-.768l.41.05a.378.378,0,0,0,.376.4c.269.032.437-.095.461-.293.067-.566-1.218-.346-1.115-1.207.048-.41.405-.627.883-.57a.717.717,0,0,1,.721.73l-.423-.051a.369.369,0,0,0-.357-.356c-.221-.033-.406.054-.432.279-.063.528,1.214.346,1.112,1.2a.731.731,0,0,1-.889.59" transform="translate(-1126.666 -117.851)" fill="#fff"/>
    <rect id="Rectangle_762" data-name="Rectangle 762" width="2.353" height="0.386" transform="translate(232.788 141.418) rotate(-74.723)" fill="#fff"/>
    <path id="Path_215" data-name="Path 215" d="M1365.719,258.877l-.985,2.14-.35-.161-.32-2.082-.734,1.6-.351-.162.985-2.14.351.162.321,2.078.733-1.592Z" transform="translate(-1128.809 -118.386)" fill="#fff"/>
    <path id="Path_216" data-name="Path 216" d="M1369.993,262.6l-.369-.282a.668.668,0,0,0-.283-.665.853.853,0,0,0-1.036,1.352.713.713,0,0,0,.994-.061l-.7-.538.187-.245,1.03.79-.184.239a1.161,1.161,0,0,1-1.538.093,1.2,1.2,0,0,1,1.463-1.909,1.124,1.124,0,0,1,.438,1.227" transform="translate(-1130.443 -119.461)" fill="#fff"/>
    <path id="Path_217" data-name="Path 217" d="M1372.791,268.286a.731.731,0,0,1,.083-1.068l.234.34a.377.377,0,0,0-.05.543c.153.223.36.267.525.153.469-.322-.544-1.142.17-1.633a.7.7,0,0,1,1.011.287.718.718,0,0,1-.072,1.024l-.242-.352a.367.367,0,0,0,.032-.5.334.334,0,0,0-.494-.14c-.438.3.541,1.14-.168,1.627a.731.731,0,0,1-1.029-.278" transform="translate(-1132.204 -121.361)" fill="#fff"/>
    <path id="Path_218" data-name="Path 218" d="M1376.762,271.456l-.374-.834-.63.282.332.742-.287.129-.333-.741-.658.3.374.834-.287.129-.532-1.186,2.15-.964.532,1.186Z" transform="translate(-1132.827 -122.645)" fill="#fff"/>
    <path id="Path_219" data-name="Path 219" d="M1378.192,274.864a.724.724,0,0,1-.489.976.671.671,0,0,1-.783-.372l-.811.8-.109-.448.788-.748-.069-.286-.915.222-.091-.376,2.288-.554Zm-.306.074-.1-.415-.767.186.1.415a.38.38,0,0,0,.491.331c.23-.056.347-.223.276-.517" transform="translate(-1133.302 -124.032)" fill="#fff"/>
    <path id="Path_220" data-name="Path 220" d="M1378.968,280.346l.015.406-2.385-.8-.017-.447,2.32-.975.015.414-1.93.77Z" transform="translate(-1133.608 -125.605)" fill="#fff"/>
    <rect id="Rectangle_763" data-name="Rectangle 763" width="0.386" height="2.353" transform="translate(242.865 156.488) rotate(-82.959)" fill="#fff"/>
    <path id="Path_221" data-name="Path 221" d="M1377.953,287.441a1.12,1.12,0,0,1-.992.843l.133-.444a.656.656,0,0,0,.535-.5.867.867,0,0,0-1.656-.5.657.657,0,0,0,.172.709l-.133.443a1.116,1.116,0,0,1-.359-1.249,1.2,1.2,0,1,1,2.3.693" transform="translate(-1133.259 -128.199)" fill="#fff"/>
    <path id="Path_222" data-name="Path 222" d="M1375.431,292.326l.432-.806-.609-.326-.384.716-.277-.148.383-.716-.636-.34-.432.806-.278-.148.614-1.146,2.078,1.113-.614,1.146Z" transform="translate(-1132.567 -129.726)" fill="#fff"/>
    <path id="Path_223" data-name="Path 223" d="M1371.9,294.016a.731.731,0,0,1,1.045-.234l-.257.324a.376.376,0,0,0-.533.112.363.363,0,0,0,.007.546c.445.353.933-.855,1.612-.317a.7.7,0,0,1,.022,1.051.717.717,0,0,1-1,.231l.265-.334a.367.367,0,0,0,.49-.117.334.334,0,0,0-.011-.515c-.416-.33-.931.853-1.6.318a.731.731,0,0,1-.036-1.066" transform="translate(-1131.881 -130.936)" fill="#fff"/>
  </g>
</svg>
