<svg xmlns="http://www.w3.org/2000/svg" width="152.311" height="71.241"><g data-name="Group 1"><path data-name="Path 1" d="M52.877 69.818h-2.681a5.173 5.173 0 01-5.173-5.173V30.121a4.181 4.181 0 014.181-4.181h4.664a4.181 4.181 0 014.181 4.181v34.524a5.173 5.173 0 01-5.173 5.173" fill="#e50e7a"/><path data-name="Path 2" d="M84.581 69.799H81.9a5.173 5.173 0 01-5.173-5.173V30.099a4.181 4.181 0 014.181-4.181h4.664a4.181 4.181 0 014.181 4.181v34.524a5.173 5.173 0 01-5.173 5.173" fill="#fbed18"/><path data-name="Path 3" d="M116.438 69.818h-2.681a5.173 5.173 0 01-5.173-5.173V30.121a4.181 4.181 0 014.181-4.181h4.664a4.181 4.181 0 014.181 4.181v34.524a5.173 5.173 0 01-5.173 5.173" fill="#3f3f3e"/><path data-name="Path 4" d="M37.994 27.364H1.423a1.423 1.423 0 110-2.846h36.572a1.423 1.423 0 010 2.846"/><path data-name="Path 5" d="M136.906 60.269h-15.292a1.423 1.423 0 010-2.846h15.3a1.423 1.423 0 010 2.846"/><path data-name="Rectangle 1" fill="#fff" d="M110.006 26.954h.796v40.631h-.796z"/><path data-name="Rectangle 2" fill="#fff" d="M78.149 26.435h.796v41.126h-.796z"/><path data-name="Rectangle 3" fill="#fff" d="M46.446 26.992h.796v40.592h-.796z"/><path data-name="Path 6" d="M116.99 71.241h-3.782a6.052 6.052 0 01-6.045-6.046V25.941a1.423 1.423 0 011.423-1.423h13.024a1.423 1.423 0 011.423 1.423v39.255a6.052 6.052 0 01-6.045 6.046m-6.981-43.877v37.831a3.2 3.2 0 003.2 3.2h3.783a3.2 3.2 0 003.2-3.2V27.364z"/><path data-name="Path 7" d="M85.128 71.217h-3.782a6.052 6.052 0 01-6.045-6.046V25.917a1.423 1.423 0 011.423-1.423H89.75a1.423 1.423 0 011.423 1.423v39.255a6.052 6.052 0 01-6.045 6.046m-6.981-43.877v37.832a3.2 3.2 0 003.2 3.2h3.781a3.2 3.2 0 003.2-3.2V27.34z"/><path data-name="Path 8" d="M53.427 71.241h-3.782a6.052 6.052 0 01-6.045-6.046V25.941a1.423 1.423 0 011.423-1.423h13.026a1.423 1.423 0 011.423 1.423v39.255a6.052 6.052 0 01-6.045 6.046m-6.981-43.877v37.831a3.2 3.2 0 003.2 3.2h3.782a3.2 3.2 0 003.2-3.2V27.364z"/><path data-name="Path 9" d="M21.049 69.818h-2.681a5.173 5.173 0 01-5.173-5.173V30.121a4.181 4.181 0 014.181-4.181h4.664a4.181 4.181 0 014.181 4.181v34.524a5.173 5.173 0 01-5.173 5.173" fill="#1a9ac4"/><path data-name="Rectangle 4" fill="#fff" d="M14.619 27.171h.796v40.413h-.796z"/><path data-name="Path 10" d="M21.6 71.241h-3.782a6.052 6.052 0 01-6.045-6.046V25.941a1.423 1.423 0 011.423-1.423h13.026a1.423 1.423 0 011.423 1.423v39.255a6.052 6.052 0 01-6.045 6.046m-6.981-43.877v37.831a3.2 3.2 0 003.2 3.2h3.782a3.2 3.2 0 003.2-3.2V27.364z"/><path data-name="Path 11" d="M17.614 63.761h-2.995v-.854h2.995a.427.427 0 110 .854"/><path data-name="Path 12" d="M49.442 63.761h-3v-.854h3a.427.427 0 110 .854"/><path data-name="Path 13" d="M81.144 63.738h-2.995v-.854h2.995a.427.427 0 110 .854"/><path data-name="Path 14" d="M113.001 63.761h-2.995v-.854h2.995a.427.427 0 110 .854"/><path data-name="Path 15" d="M77.408 69.007a1.424 1.424 0 01-1.292-.823L56.758 26.54a1.423 1.423 0 012.581-1.2l19.358 41.644a1.423 1.423 0 01-1.29 2.023"/><path data-name="Path 16" d="M141.996 71.217a1.423 1.423 0 01-1.291-.823l-20.39-43.854a1.423 1.423 0 012.581-1.2l20.385 43.854a1.424 1.424 0 01-1.29 2.023"/><path data-name="Path 17" d="M102.424 17.112l-.689 1.565.645.605-.282.64-3.153-2.987.313-.711 4.333.31-.284.645zm-2.581-.206l1.467 1.379.538-1.221z"/><path data-name="Path 18" d="M104.786 11.184a1.96 1.96 0 01.372 2.946l-.782 1.081-3.309-2.395.782-1.081a1.977 1.977 0 012.938-.551m-.072 2.626a1.344 1.344 0 00-.331-2.069 1.363 1.363 0 00-2.092.315l-.389.538 2.424 1.754z"/><path data-name="Path 19" d="M106.859 6.3l.524-.471 1.593 4.062-.577.519-3.878-2.005.533-.48 3.174 1.715z"/><path data-name="Path 20" d="M111.457 3.843l-1.359.82.62 1.027 1.207-.729.283.468-1.208.728.646 1.072 1.359-.82.282.468-1.932 1.166-2.113-3.5 1.932-1.166z"/><path data-name="Path 21" d="M114.738 1.771a1.257 1.257 0 011.783.637 1.163 1.163 0 01-.476 1.428l1.542 1.23-.749.281-1.455-1.2-.479.18.574 1.53-.628.235-1.435-3.825zm.192.512l-.694.26.481 1.282.694-.26a.66.66 0 00.466-.916.645.645 0 00-.948-.366"/><path data-name="Path 22" d="M118.349.652l2.808-.486.093.539-1.071.186.6 3.485-.66.114-.6-3.485-1.077.187z"/><path data-name="Rectangle 5" d="M123.373.02l.67-.02.122 4.081-.67.02z"/><path data-name="Path 23" d="M127.342 4.288c-.811-.1-1.383-.615-1.3-1.332l.712.085a.655.655 0 00.652.687c.467.056.76-.164.8-.508.117-.981-2.113-.6-1.935-2.095.085-.712.7-1.089 1.532-.99a1.246 1.246 0 011.252 1.268l-.736-.088a.638.638 0 00-.618-.618c-.384-.058-.7.094-.751.484-.109.916 2.107.6 1.931 2.083a1.27 1.27 0 01-1.543 1.024"/><path data-name="Rectangle 6" d="M130.463 4.834l1.084-3.936.645.178-1.084 3.936z"/><path data-name="Path 24" d="M137.619 3.221l-1.71 3.713-.608-.28-.555-3.611-1.274 2.778-.608-.28 1.71-3.713.609.28.557 3.606 1.272-2.763z"/><path data-name="Path 25" d="M142.2 7.825l-.639-.489a1.162 1.162 0 00-.492-1.155 1.48 1.48 0 00-1.8 2.346 1.237 1.237 0 001.725-.106l-1.217-.934.325-.424 1.786 1.369-.318.415a2.013 2.013 0 01-2.67.161 2.086 2.086 0 012.538-3.312 1.947 1.947 0 01.759 2.13"/><path data-name="Path 26" d="M144.001 14.392a1.269 1.269 0 01.145-1.853l.406.591a.655.655 0 00-.086.943c.266.387.624.462.91.266.814-.559-.943-1.983.3-2.835a1.222 1.222 0 011.754.5 1.246 1.246 0 01-.125 1.777l-.42-.61a.638.638 0 00.056-.872.579.579 0 00-.859-.243c-.761.522.939 1.977-.291 2.823a1.268 1.268 0 01-1.786-.483"/><path data-name="Path 27" d="M149.812 17.666l-.649-1.448-1.093.491.577 1.286-.5.223-.577-1.286-1.141.512.649 1.448-.5.224-.922-2.059 3.731-1.673.923 2.059z"/><path data-name="Path 28" d="M151.47 21.173a1.256 1.256 0 01-.848 1.693 1.162 1.162 0 01-1.36-.644l-1.407 1.382-.188-.778 1.367-1.3-.12-.5-1.588.385-.158-.652 3.97-.961zm-.531.129l-.174-.72-1.331.322.174.72a.66.66 0 00.853.574c.4-.1.6-.388.478-.9"/><path data-name="Path 29" d="M152.284 27.955l.026.7-4.14-1.38-.029-.775 4.025-1.692.026.717-3.35 1.337z"/><path data-name="Rectangle 7" d="M147.954 30.991l.082-.665 4.054.497-.081.665z"/><path data-name="Path 30" d="M151.128 35.767a1.946 1.946 0 01-1.722 1.464l.232-.771a1.14 1.14 0 00.928-.862 1.5 1.5 0 00-2.874-.865 1.141 1.141 0 00.3 1.231l-.232.77a1.941 1.941 0 01-.623-2.169 2.085 2.085 0 013.994 1.2"/><path data-name="Path 31" d="M147.955 41.595l.749-1.4-1.057-.567-.666 1.244-.482-.258.666-1.243-1.11-.593-.749 1.4-.482-.258 1.066-1.989 3.605 1.931-1.065 1.989z"/><path data-name="Path 32" d="M143.008 42.428a1.268 1.268 0 011.814-.407l-.446.562a.655.655 0 00-.927.2.631.631 0 00.013.948c.773.614 1.619-1.484 2.8-.549a1.222 1.222 0 01.038 1.824 1.244 1.244 0 01-1.735.4l.46-.581a.638.638 0 00.851-.2.58.58 0 00-.019-.893c-.723-.574-1.616 1.48-2.784.552a1.27 1.27 0 01-.062-1.85"/></g></svg>