<svg xmlns="http://www.w3.org/2000/svg" xmlns:xlink="http://www.w3.org/1999/xlink" width="269.545" height="353.254" viewBox="0 0 269.545 353.254">
  <defs>
    <clipPath id="clip-path">
      <rect id="Rectangle_12" data-name="Rectangle 12" width="269.545" height="353.254" fill="none"/>
    </clipPath>
  </defs>
  <g id="Group_7" data-name="Group 7" clip-path="url(#clip-path)">
    <path id="Path_33" data-name="Path 33" d="M1746.22,366.348c-2.315.481-4.606,1.068-6.9,1.636a112.426,112.426,0,0,0-143.78-60.306l-2.523-6.521a119.418,119.418,0,0,1,153.2,65.192" transform="translate(-1628.642 -187.695)" fill="#1a9ac4"/>
    <path id="Path_34" data-name="Path 34" d="M1630.365,523.36c2.271-.566,4.542-1.138,6.839-1.585a119.419,119.419,0,0,1-68.647,147.9l-1.487-6.94a112.432,112.432,0,0,0,63.295-139.378" transform="translate(-1516.275 -334.154)" fill="#3f3f3e"/>
    <path id="Path_35" data-name="Path 35" d="M1794.748,738.091a112.427,112.427,0,0,0,143.3,65.084l1.479,6.9a119.423,119.423,0,0,1-151.3-69.463Z" transform="translate(-1892.148 -472.687)" fill="#fbed18"/>
    <path id="Path_36" data-name="Path 36" d="M1345.839,446.323a151.029,151.029,0,0,0,210.065-5.01q3.351,3.291,6.684,6.6a160.423,160.423,0,0,1-223.121,5.312Z" transform="translate(-1353.839 -282.625)" fill="#e50e7a"/>
    <path id="Path_37" data-name="Path 37" d="M1222.818,35.708A151.029,151.029,0,0,0,1211.21-174.26l6.371-6.9A160.424,160.424,0,0,1,1229.517,42.32q-3.341-3.315-6.7-6.612" transform="translate(-1014.316 116.019)" fill="#fbed18"/>
    <circle id="Ellipse_1" data-name="Ellipse 1" cx="133.605" cy="133.605" r="133.605" transform="translate(93.231 240.645) rotate(-135)" fill="none" stroke="#3f3f3e" stroke-miterlimit="10" stroke-width="2"/>
  </g>
</svg>
