<svg xmlns="http://www.w3.org/2000/svg" width="269.545" height="353.254"><defs><clipPath id="a"><path data-name="Rectangle 12" fill="none" d="M0 0h269.545v353.254H0z"/></clipPath></defs><g data-name="Group 7" clip-path="url(#a)"><path data-name="Path 33" d="M117.578 178.653c-2.315.481-4.606 1.068-6.9 1.636a112.426 112.426 0 00-143.78-60.306l-2.523-6.521a119.418 119.418 0 01153.2 65.192" fill="#1a9ac4"/><path data-name="Path 34" d="M114.09 189.206c2.271-.566 4.542-1.138 6.839-1.585a119.419 119.419 0 01-68.647 147.9l-1.487-6.94a112.432 112.432 0 0063.295-139.378" fill="#3f3f3e"/><path data-name="Path 35" d="M-97.4 265.404a112.427 112.427 0 00143.3 65.084l1.479 6.9a119.423 119.423 0 01-151.3-69.463z" fill="#fbed18"/><path data-name="Path 36" d="M-8 163.698a151.029 151.029 0 00210.065-5.01q3.351 3.291 6.684 6.6A160.423 160.423 0 01-14.372 170.6z" fill="#e50e7a"/><path data-name="Path 37" d="M208.502 151.727a151.029 151.029 0 00-11.608-209.968l6.371-6.9a160.424 160.424 0 0111.936 223.48q-3.341-3.315-6.7-6.612" fill="#fbed18"/><circle data-name="Ellipse 1" cx="133.605" cy="133.605" r="133.605" transform="rotate(-135 96.455 101.014)" fill="none" stroke="#3f3f3e" stroke-miterlimit="10" stroke-width="2"/></g></svg>