<?xml version="1.0" standalone="no"?>
<!DOCTYPE svg PUBLIC "-//W3C//DTD SVG 20010904//EN"
 "http://www.w3.org/TR/2001/REC-SVG-20010904/DTD/svg10.dtd">
<svg version="1.0" xmlns="http://www.w3.org/2000/svg"
 width="100.000000pt" height="100.000000pt" viewBox="0 0 100.000000 100.000000"
 preserveAspectRatio="xMidYMid meet">
<metadata>
Created by potrace 1.14, written by Peter Selinger 2001-2017
</metadata>
<g transform="translate(0.000000,100.000000) scale(0.100000,-0.100000)"
fill="#000000" stroke="none">
<path d="M503 973 c-8 -19 -3 -22 48 -29 182 -23 332 -149 388 -326 33 -103 9
-257 -55 -354 -108 -162 -290 -237 -483 -197 -212 44 -356 224 -354 443 2 125
40 214 130 304 41 41 45 42 63 21 11 -13 5 -24 -38 -68 -60 -64 -89 -119 -103
-193 -11 -60 -7 -74 19 -67 12 3 18 16 19 44 4 72 63 170 134 225 l27 20 -32
52 c-17 29 -37 52 -44 52 -20 0 -108 -86 -142 -140 -89 -139 -100 -318 -28
-467 131 -268 476 -359 726 -192 258 172 290 538 65 751 -43 41 -142 97 -198
113 -78 22 -136 25 -142 8z"/>
<path d="M500 860 c0 -27 3 -50 6 -50 14 0 64 35 64 45 0 10 -53 55 -65 55 -3
0 -5 -22 -5 -50z"/>
<path d="M610 840 c0 -13 17 -26 55 -44 77 -35 147 -108 174 -182 55 -144 -7
-326 -139 -409 -100 -63 -238 -76 -337 -30 -44 20 -58 23 -65 13 -13 -22 -10
-26 37 -47 69 -31 176 -44 234 -28 18 5 42 10 53 12 82 16 197 115 243 209 36
75 45 185 21 268 -31 108 -139 217 -244 248 -28 7 -32 6 -32 -10z"/>
<path d="M484 755 c-3 -7 -5 -19 -3 -26 4 -34 -3 -48 -31 -58 -106 -36 -157
-146 -116 -245 16 -39 69 -85 117 -100 23 -8 33 -18 34 -34 2 -21 -2 -23 -34
-19 -86 10 -163 80 -188 170 -12 42 -21 57 -32 55 -12 -3 -15 -14 -13 -43 9
-112 120 -212 246 -222 l63 -5 -2 45 c-1 43 0 46 30 51 41 8 104 61 121 102
42 101 -13 216 -116 244 -24 6 -37 16 -36 25 4 24 12 27 53 16 75 -20 163
-120 163 -186 0 -20 5 -25 24 -25 22 0 23 3 16 38 -16 78 -54 135 -119 176
-64 41 -168 65 -177 41z m0 -154 c1 -19 -3 -31 -10 -31 -20 0 -51 -46 -48 -72
1 -13 3 -26 3 -30 1 -4 11 -16 23 -28 33 -30 91 -27 117 6 12 15 21 35 21 45
0 29 -22 68 -42 74 -10 4 -19 12 -20 18 -7 55 -4 58 31 46 74 -26 114 -125 77
-193 -39 -73 -137 -99 -209 -56 -66 39 -86 128 -44 191 20 31 85 74 95 64 2
-2 5 -17 6 -34z m46 -71 c14 0 20 -31 10 -51 -14 -24 -56 -25 -69 -1 -13 24
14 66 36 58 8 -3 18 -6 23 -6z"/>
<path d="M484 505 c-8 -19 12 -36 33 -28 19 7 12 37 -10 41 -9 2 -20 -4 -23
-13z"/>
</g>
</svg>
